<svg viewBox="0 0 60 60" fill="none" xmlns="http://www.w3.org/2000/svg">
<path d="M38.9875 10.5117H21.0126C15.2126 10.5117 10.5117 15.2134 10.5117 21.0134V38.9867C10.5117 44.7867 15.2134 49.4884 21.0134 49.4884H38.9867C44.7867 49.4884 49.4884 44.7867 49.4884 38.9867V21.0134C49.4884 15.2134 44.7875 10.5117 38.9875 10.5117Z" stroke="#493C5D" stroke-miterlimit="10"/>
<path d="M30.0001 39.4085C35.1962 39.4085 39.4085 35.1962 39.4085 30.0001C39.4085 24.8041 35.1962 20.5918 30.0001 20.5918C24.8041 20.5918 20.5918 24.8041 20.5918 30.0001C20.5918 35.1962 24.8041 39.4085 30.0001 39.4085Z" stroke="#493C5D" stroke-miterlimit="10"/>
<path d="M41.4238 17.0601C42.2609 17.0601 42.9393 17.7386 42.9395 18.5757C42.9395 19.4129 42.261 20.0913 41.4238 20.0913C40.5868 20.0912 39.9082 19.4128 39.9082 18.5757C39.9083 17.7387 40.5868 17.0602 41.4238 17.0601Z" stroke="#493C5D"/>
</svg>
