<svg width="60" height="60" viewBox="0 0 60 60" fill="none" xmlns="http://www.w3.org/2000/svg">
<path d="M29.9188 44.4875C42.0242 44.4875 51.8375 36.5425 51.8375 26.7438C51.8375 16.945 42.0242 9 29.9188 9C17.8133 9 8 16.945 8 26.7438C8 32.9499 11.9349 38.4129 17.8947 41.5817L16.35 50.75L26.7875 44.308C27.8104 44.4277 28.8541 44.4875 29.9188 44.4875Z" stroke="#493C5D" stroke-linejoin="round"/>
<path d="M14.2625 22.5688H20.525M17.3937 31.9626V22.5688M21.5687 31.9626L25.2218 22.5688L28.875 31.9626M22.6125 29.8751H27.8312M32.0062 22.5688V31.9626H36.1812M39.3125 22.5688V31.9626M39.3125 28.8313L45.575 22.5688M41.4 26.7438L45.575 31.9626" stroke="#493C5D" stroke-linecap="round" stroke-linejoin="round"/>
</svg>
